<svg width="44" height="36" viewBox="0 0 44 36" fill="none" xmlns="http://www.w3.org/2000/svg">
<path d="M21.8583 0C24.7569 0 27.5368 0.934013 29.5864 2.59657C31.636 4.25912 32.7875 6.51403 32.7875 8.86523C32.7875 11.2164 31.636 13.4713 29.5864 15.1339C27.5368 16.7965 24.7569 17.7305 21.8583 17.7305C18.9597 17.7305 16.1799 16.7965 14.1302 15.1339C12.0806 13.4713 10.9292 11.2164 10.9292 8.86523C10.9292 6.51403 12.0806 4.25912 14.1302 2.59657C16.1799 0.934013 18.9597 0 21.8583 0ZM21.8583 22.1631C33.9351 22.1631 43.7167 26.1303 43.7167 31.0283V35.4609H0V31.0283C0 26.1303 9.7816 22.1631 21.8583 22.1631Z" fill="black"/>
</svg>
